<svg width="424" height="126" viewBox="0 0 424 126" fill="none" xmlns="http://www.w3.org/2000/svg">
<path d="M423 63C423 71.2093 417.396 79.2348 406.765 86.7042C396.161 94.1543 380.753 100.904 361.622 106.589C323.373 117.955 270.474 125 212 125C153.526 125 100.627 117.955 62.3782 106.589C43.2475 100.904 27.8386 94.1543 17.2349 86.7042C6.60359 79.2348 1 71.2093 1 63C1 54.7907 6.60359 46.7652 17.2349 39.2958C27.8386 31.8458 43.2475 25.0959 62.3782 19.4108C100.627 8.04451 153.526 1 212 1C270.474 1 323.373 8.04451 361.622 19.4108C380.753 25.0959 396.161 31.8458 406.765 39.2958C417.396 46.7652 423 54.7907 423 63Z" stroke="#E7FBBE" stroke-width="2"/>
<path d="M256.5 42.0625C257.875 42.2292 259.125 42.3542 260.25 42.4375C261.333 42.5208 262.271 42.6042 263.062 42.6875C263.979 42.7708 264.792 42.8333 265.5 42.875C266.25 42.875 267.208 42.8542 268.375 42.8125C269.375 42.7708 270.646 42.7083 272.188 42.625C273.729 42.5417 275.625 42.3958 277.875 42.1875C276.792 42.8125 275.896 43.4375 275.188 44.0625C274.521 44.6875 274 45.25 273.625 45.75C273.167 46.3333 272.833 46.9167 272.625 47.5C272.5 48.2917 272.542 49.8333 272.75 52.125C272.833 53.0833 272.958 54.2708 273.125 55.6875C273.333 57.0625 273.583 58.7083 273.875 60.625C274.208 62.5 274.604 64.6667 275.062 67.125C275.562 69.5833 276.125 72.375 276.75 75.5C277.583 73.125 278.271 71.0208 278.812 69.1875C279.354 67.3125 279.812 65.7083 280.188 64.375C280.604 62.875 280.958 61.5417 281.25 60.375C281.542 59.1667 281.896 57.6042 282.312 55.6875C282.646 54.0625 283.083 51.9583 283.625 49.375C284.167 46.7917 284.833 43.6042 285.625 39.8125L287.875 40.125C288.083 43.0833 288.292 45.6875 288.5 47.9375C288.75 50.1875 288.958 52.1042 289.125 53.6875C289.292 55.5208 289.458 57.1042 289.625 58.4375C289.792 59.6458 290.042 61.0417 290.375 62.625C290.667 63.9583 291.042 65.6042 291.5 67.5625C291.958 69.4792 292.562 71.6458 293.312 74.0625C294.062 71.1042 294.729 68.4583 295.312 66.125C295.938 63.7917 296.458 61.7292 296.875 59.9375C297.333 58.1458 297.708 56.6042 298 55.3125C298.333 54.0208 298.604 52.9375 298.812 52.0625C299.271 49.9792 299.542 48.5833 299.625 47.875C299.583 47.0833 299.396 46.3125 299.062 45.5625C298.771 44.8958 298.312 44.1667 297.688 43.375C297.062 42.5833 296.146 41.8125 294.938 41.0625C297.479 41.1458 299.542 41.2083 301.125 41.25C302.75 41.25 304.042 41.25 305 41.25H307.5H309.75C310.583 41.25 311.667 41.25 313 41.25C314.375 41.2083 316.125 41.1458 318.25 41.0625C316.417 42.0208 314.938 42.8958 313.812 43.6875C312.688 44.4792 311.812 45.1458 311.188 45.6875C310.438 46.3542 309.896 46.9167 309.562 47.375C309.229 48.2083 308.688 50.0833 307.938 53C307.604 54.25 307.229 55.8125 306.812 57.6875C306.396 59.5208 305.896 61.7292 305.312 64.3125C304.771 66.8958 304.146 69.9167 303.438 73.375C302.729 76.7917 301.938 80.7083 301.062 85.125L290.25 84L285.625 64.5625C284.917 68.1042 284.354 70.9792 283.938 73.1875C283.521 75.3542 283.208 77.0417 283 78.25C282.75 79.7083 282.604 80.7708 282.562 81.4375C282.521 82.0208 282.479 82.5833 282.438 83.125C282.396 83.5833 282.333 84.0833 282.25 84.625C282.208 85.1667 282.146 85.6667 282.062 86.125H271C269.917 81.375 268.938 77.1875 268.062 73.5625C267.229 69.8958 266.479 66.6875 265.812 63.9375C265.146 61.1875 264.562 58.8542 264.062 56.9375C263.604 55.0208 263.188 53.4167 262.812 52.125C261.979 49.125 261.375 47.2708 261 46.5625C260.708 46.2292 260.333 45.8333 259.875 45.375C259.5 45 259.042 44.5417 258.5 44C257.917 43.4167 257.25 42.7708 256.5 42.0625ZM334 38.875C336.25 38.9583 338.521 39.375 340.812 40.125C343.146 40.8333 345.292 42 347.25 43.625C349.208 45.2083 350.875 47.2708 352.25 49.8125C353.625 52.3125 354.479 55.375 354.812 59C355.104 61.9583 354.729 64.8958 353.688 67.8125C352.688 70.6875 351.292 73.3333 349.5 75.75C347.708 78.1667 345.646 80.2292 343.312 81.9375C340.979 83.6042 338.646 84.7083 336.312 85.25C334.896 85.5833 333.333 85.625 331.625 85.375C329.958 85.0833 328.25 84.5625 326.5 83.8125C324.792 83.0208 323.104 82.0208 321.438 80.8125C319.812 79.6042 318.333 78.2292 317 76.6875C315.667 75.1042 314.542 73.3958 313.625 71.5625C312.75 69.7292 312.208 67.8125 312 65.8125C311.792 64.1458 311.771 62.3125 311.938 60.3125C312.146 58.2708 312.542 56.25 313.125 54.25C313.75 52.2083 314.604 50.25 315.688 48.375C316.812 46.4583 318.229 44.7917 319.938 43.375C321.646 41.9167 323.646 40.7917 325.938 40C328.271 39.1667 330.958 38.7917 334 38.875ZM322.812 64.1875C322.229 68.6458 322.646 72.2292 324.062 74.9375C325.521 77.6458 327.708 79.2917 330.625 79.875C332.042 80.1667 333.396 79.875 334.688 79C336.021 78.0833 337.229 76.7708 338.312 75.0625C339.396 73.3542 340.333 71.3542 341.125 69.0625C341.917 66.7708 342.5 64.375 342.875 61.875C343.25 59.375 343.271 57.125 342.938 55.125C342.646 53.0833 342.125 51.3542 341.375 49.9375C340.625 48.4792 339.708 47.3542 338.625 46.5625C337.583 45.7708 336.5 45.3333 335.375 45.25C333.417 45.125 331.708 45.6458 330.25 46.8125C328.792 47.9375 327.562 49.4167 326.562 51.25C325.562 53.0833 324.75 55.1458 324.125 57.4375C323.542 59.7292 323.104 61.9792 322.812 64.1875ZM379.625 38.875C381.875 38.9583 384.146 39.375 386.438 40.125C388.771 40.8333 390.917 42 392.875 43.625C394.833 45.2083 396.5 47.2708 397.875 49.8125C399.25 52.3125 400.104 55.375 400.438 59C400.729 61.9583 400.354 64.8958 399.312 67.8125C398.312 70.6875 396.917 73.3333 395.125 75.75C393.333 78.1667 391.271 80.2292 388.938 81.9375C386.604 83.6042 384.271 84.7083 381.938 85.25C380.521 85.5833 378.958 85.625 377.25 85.375C375.583 85.0833 373.875 84.5625 372.125 83.8125C370.417 83.0208 368.729 82.0208 367.062 80.8125C365.438 79.6042 363.958 78.2292 362.625 76.6875C361.292 75.1042 360.167 73.3958 359.25 71.5625C358.375 69.7292 357.833 67.8125 357.625 65.8125C357.417 64.1458 357.396 62.3125 357.562 60.3125C357.771 58.2708 358.167 56.25 358.75 54.25C359.375 52.2083 360.229 50.25 361.312 48.375C362.438 46.4583 363.854 44.7917 365.562 43.375C367.271 41.9167 369.271 40.7917 371.562 40C373.896 39.1667 376.583 38.7917 379.625 38.875ZM368.438 64.1875C367.854 68.6458 368.271 72.2292 369.688 74.9375C371.146 77.6458 373.333 79.2917 376.25 79.875C377.667 80.1667 379.021 79.875 380.312 79C381.646 78.0833 382.854 76.7708 383.938 75.0625C385.021 73.3542 385.958 71.3542 386.75 69.0625C387.542 66.7708 388.125 64.375 388.5 61.875C388.875 59.375 388.896 57.125 388.562 55.125C388.271 53.0833 387.75 51.3542 387 49.9375C386.25 48.4792 385.333 47.3542 384.25 46.5625C383.208 45.7708 382.125 45.3333 381 45.25C379.042 45.125 377.333 45.6458 375.875 46.8125C374.417 47.9375 373.188 49.4167 372.188 51.25C371.188 53.0833 370.375 55.1458 369.75 57.4375C369.167 59.7292 368.729 61.9792 368.438 64.1875Z" fill="black"/>
<path d="M29.75 40.375C32.5417 40.7083 34.9583 40.9583 37 41.125C39.0417 41.25 40.7292 41.3542 42.0625 41.4375C43.6042 41.5208 44.8958 41.5417 45.9375 41.5C47.0208 41.4583 48.5 41.3542 50.375 41.1875C51.9583 41.0625 54.0417 40.8958 56.625 40.6875C59.2083 40.4375 62.4375 40.1042 66.3125 39.6875C66.3542 40.6458 66.375 41.5833 66.375 42.5C66.4167 43.375 66.4583 44.1458 66.5 44.8125C66.5417 45.6042 66.5625 46.3333 66.5625 47C66.5625 47.7083 66.5208 48.6042 66.4375 49.6875C66.3542 50.6042 66.2083 51.7708 66 53.1875C65.8333 54.5625 65.5625 56.2083 65.1875 58.125C64.6042 55.875 64.0417 54.0625 63.5 52.6875C62.9583 51.2708 62.4583 50.1458 62 49.3125C61.5 48.3542 61 47.625 60.5 47.125C59.9583 46.75 59.3125 46.4375 58.5625 46.1875C57.8958 45.9792 57.0417 45.8125 56 45.6875C55 45.5625 53.8125 45.5833 52.4375 45.75C52.2292 51.25 52.0833 55.7083 52 59.125C51.9167 62.5417 51.8542 65.2083 51.8125 67.125C51.7708 69.4167 51.75 71.0625 51.75 72.0625C51.7917 73.4792 52.0208 74.875 52.4375 76.25C52.7708 77.4167 53.3125 78.625 54.0625 79.875C54.8125 81.125 55.8958 82.2292 57.3125 83.1875H49.6875C48.9792 83.1875 48.1042 83.2292 47.0625 83.3125C46.1875 83.3958 45.0625 83.4792 43.6875 83.5625C42.3542 83.6458 40.7917 83.7917 39 84C39.625 82.9167 40.125 81.9375 40.5 81.0625C40.875 80.1875 41.1667 79.4375 41.375 78.8125C41.625 78.0625 41.8125 77.3958 41.9375 76.8125C41.9792 75.9792 42.0833 74.2917 42.25 71.75C42.2917 70.7083 42.3333 69.4167 42.375 67.875C42.4583 66.3333 42.5417 64.5 42.625 62.375C42.75 60.25 42.8542 57.8125 42.9375 55.0625C43.0625 52.2708 43.1875 49.125 43.3125 45.625C42.5625 45.4167 41.8542 45.4375 41.1875 45.6875C40.5208 45.8958 39.9375 46.1667 39.4375 46.5C38.8542 46.9167 38.2917 47.4167 37.75 48C37.2083 48.7083 36.6042 49.625 35.9375 50.75C35.3542 51.7083 34.6875 52.9792 33.9375 54.5625C33.1875 56.1042 32.3333 58.0208 31.375 60.3125C31.1667 57.8958 31.0208 55.9167 30.9375 54.375C30.8542 52.7917 30.7917 51.5625 30.75 50.6875C30.7083 49.6458 30.6875 48.875 30.6875 48.375C30.6875 47.9167 30.6458 47.3125 30.5625 46.5625C30.4792 45.9375 30.375 45.125 30.25 44.125C30.125 43.0833 29.9583 41.8333 29.75 40.375ZM88.125 38.875C90.375 38.9583 92.6458 39.375 94.9375 40.125C97.2708 40.8333 99.4167 42 101.375 43.625C103.333 45.2083 105 47.2708 106.375 49.8125C107.75 52.3125 108.604 55.375 108.938 59C109.229 61.9583 108.854 64.8958 107.812 67.8125C106.812 70.6875 105.417 73.3333 103.625 75.75C101.833 78.1667 99.7708 80.2292 97.4375 81.9375C95.1042 83.6042 92.7708 84.7083 90.4375 85.25C89.0208 85.5833 87.4583 85.625 85.75 85.375C84.0833 85.0833 82.375 84.5625 80.625 83.8125C78.9167 83.0208 77.2292 82.0208 75.5625 80.8125C73.9375 79.6042 72.4583 78.2292 71.125 76.6875C69.7917 75.1042 68.6667 73.3958 67.75 71.5625C66.875 69.7292 66.3333 67.8125 66.125 65.8125C65.9167 64.1458 65.8958 62.3125 66.0625 60.3125C66.2708 58.2708 66.6667 56.25 67.25 54.25C67.875 52.2083 68.7292 50.25 69.8125 48.375C70.9375 46.4583 72.3542 44.7917 74.0625 43.375C75.7708 41.9167 77.7708 40.7917 80.0625 40C82.3958 39.1667 85.0833 38.7917 88.125 38.875ZM76.9375 64.1875C76.3542 68.6458 76.7708 72.2292 78.1875 74.9375C79.6458 77.6458 81.8333 79.2917 84.75 79.875C86.1667 80.1667 87.5208 79.875 88.8125 79C90.1458 78.0833 91.3542 76.7708 92.4375 75.0625C93.5208 73.3542 94.4583 71.3542 95.25 69.0625C96.0417 66.7708 96.625 64.375 97 61.875C97.375 59.375 97.3958 57.125 97.0625 55.125C96.7708 53.0833 96.25 51.3542 95.5 49.9375C94.75 48.4792 93.8333 47.3542 92.75 46.5625C91.7083 45.7708 90.625 45.3333 89.5 45.25C87.5417 45.125 85.8333 45.6458 84.375 46.8125C82.9167 47.9375 81.6875 49.4167 80.6875 51.25C79.6875 53.0833 78.875 55.1458 78.25 57.4375C77.6667 59.7292 77.2292 61.9792 76.9375 64.1875ZM107.75 41.4375C109.208 41.6458 110.479 41.8125 111.562 41.9375C112.646 42.0625 113.542 42.1667 114.25 42.25C115.083 42.3333 115.792 42.3958 116.375 42.4375C117.042 42.5208 117.854 42.4792 118.812 42.3125C119.812 42.1458 120.875 41.9792 122 41.8125C123.125 41.6042 124.292 41.4375 125.5 41.3125C126.708 41.1875 127.875 41.1875 129 41.3125C129.75 41.3958 130.708 41.5625 131.875 41.8125C133.042 42.0625 134.271 42.4583 135.562 43C136.896 43.5417 138.229 44.25 139.562 45.125C140.896 46 142.104 47.1042 143.188 48.4375C144.271 49.7708 145.167 51.3542 145.875 53.1875C146.583 55.0208 146.979 57.1667 147.062 59.625C147.188 63.2917 146.854 66.625 146.062 69.625C145.271 72.625 144.042 75.1875 142.375 77.3125C140.75 79.4375 138.688 81.1042 136.188 82.3125C133.688 83.5208 130.771 84.1875 127.438 84.3125C124.896 84.5208 122.396 84.7083 119.938 84.875C118.896 84.9583 117.792 85.0208 116.625 85.0625C115.5 85.1042 114.375 85.1458 113.25 85.1875C112.125 85.1875 111.042 85.1667 110 85.125C108.958 85.0833 108 85.0208 107.125 84.9375C108.083 84.4792 108.854 84.0208 109.438 83.5625C110.062 83.1042 110.542 82.7083 110.875 82.375C111.25 81.9583 111.521 81.5833 111.688 81.25C111.771 80.7917 111.896 79.8958 112.062 78.5625C112.188 77.4375 112.354 75.8333 112.562 73.75C112.771 71.6667 113.021 68.8333 113.312 65.25L113.688 60.8125C113.896 58.0625 113.979 55.8125 113.938 54.0625C113.938 52.3125 113.896 50.9375 113.812 49.9375C113.688 48.7708 113.521 47.9167 113.312 47.375C113.146 46.9167 112.833 46.375 112.375 45.75C111.958 45.25 111.375 44.6458 110.625 43.9375C109.917 43.1875 108.958 42.3542 107.75 41.4375ZM120.938 64.4375C121.021 68.1458 121.208 71 121.5 73C121.833 74.9583 122.188 76.4167 122.562 77.375C123.021 78.4583 123.521 79.1042 124.062 79.3125C124.854 79.3125 125.75 78.9792 126.75 78.3125C127.75 77.6042 128.729 76.5417 129.688 75.125C130.688 73.7083 131.583 71.9375 132.375 69.8125C133.208 67.6875 133.812 65.2083 134.188 62.375C134.562 59.5417 134.458 57.0417 133.875 54.875C133.292 52.7083 132.521 50.8958 131.562 49.4375C130.604 47.9375 129.625 46.8125 128.625 46.0625C127.625 45.2708 126.875 44.875 126.375 44.875C125.792 44.875 125.271 45.0417 124.812 45.375C124.354 45.6667 123.708 46.3542 122.875 47.4375C122.458 48.0208 122.083 48.8542 121.75 49.9375C121.458 50.8958 121.208 52.1667 121 53.75C120.792 55.3333 120.729 57.375 120.812 59.875L120.938 64.4375Z" fill="black"/>
<circle cx="205" cy="63" r="50" fill="#E7FBBE"/>
<rect x="230" y="35" width="8" height="60" transform="rotate(30 230 35)" fill="#FFCBCB"/>
<rect x="179" y="74.9282" width="8" height="25.4582" transform="rotate(-60 179 74.9282)" fill="#FFCBCB"/>
</svg>
